inDegrees=no
num_controls=7
num_derivatives=13
num_iterations=132
num_multipliers=7
num_parameters=0
num_slacks=7
num_states=26
objective=5.184156
objective_accelerations=0.463297
objective_balance=0.077347
objective_effort=0.414305
objective_height=4.208604
objective_ligament=0.020603
solver_duration=1534.460795
status=Solve_Succeeded
success=true
DataType=double
version=3
OpenSimVersion=4.4-2022-07-23-0e9fedc
endheader
time	/jointset/ground_pelvis/pelvis_tilt/value	/jointset/ground_pelvis/pelvis_tx/value	/jointset/ground_pelvis/pelvis_ty/value	/jointset/hip_l/hip_flexion_l/value	/jointset/hip_l/hip_adduction_l/value	/jointset/hip_l/hip_rotation_l/value	/jointset/back/lumbar_extension/value	/jointset/patellofemoral_l/patellar_flexion_l/value	/jointset/knee_l/knee_flexion_l/value	/jointset/knee_l/knee_adduction_l/value	/jointset/knee_l/knee_rotation_l/value	/jointset/ankle_l/ankle_angle_l/value	/jointset/subtalar_l/subtalar_angle_l/value	/jointset/ground_pelvis/pelvis_tilt/speed	/jointset/ground_pelvis/pelvis_tx/speed	/jointset/ground_pelvis/pelvis_ty/speed	/jointset/hip_l/hip_flexion_l/speed	/jointset/hip_l/hip_adduction_l/speed	/jointset/hip_l/hip_rotation_l/speed	/jointset/back/lumbar_extension/speed	/jointset/patellofemoral_l/patellar_flexion_l/speed	/jointset/knee_l/knee_flexion_l/speed	/jointset/knee_l/knee_adduction_l/speed	/jointset/knee_l/knee_rotation_l/speed	/jointset/ankle_l/ankle_angle_l/speed	/jointset/subtalar_l/subtalar_angle_l/speed	/forceset/tau_hip_flexion_l	/forceset/tau_hip_adduction_l	/forceset/tau_hip_rotation_l	/forceset/tau_knee_flexion_l	/forceset/tau_ankle_angle_l	/forceset/tau_subtalar_angle_l	/forceset/tau_lumbar_extension	lambda_cid13_p0	lambda_cid13_p1	lambda_cid13_p2	lambda_cid13_p3	lambda_cid13_p4	lambda_cid13_p5	lambda_cid14_p0	/jointset/ground_pelvis/pelvis_tilt/accel	/jointset/ground_pelvis/pelvis_tx/accel	/jointset/ground_pelvis/pelvis_ty/accel	/jointset/hip_l/hip_flexion_l/accel	/jointset/hip_l/hip_adduction_l/accel	/jointset/hip_l/hip_rotation_l/accel	/jointset/back/lumbar_extension/accel	/jointset/patellofemoral_l/patellar_flexion_l/accel	/jointset/knee_l/knee_flexion_l/accel	/jointset/knee_l/knee_adduction_l/accel	/jointset/knee_l/knee_rotation_l/accel	/jointset/ankle_l/ankle_angle_l/accel	/jointset/subtalar_l/subtalar_angle_l/accel	gamma_cid13_p0	gamma_cid13_p1	gamma_cid13_p2	gamma_cid13_p3	gamma_cid13_p4	gamma_cid13_p5	gamma_cid14_p0
0	-0.1601624072320594	0.05857276885911041	0.8979985785319262	0.3774920279260975	-0.2591395135640792	-0.2729274035217264	-0.0126506700172305	0.03223623128419659	0.03223623128433527	-0.1745328694738375	0.1744863007768256	-0.04231376238535053	-0.009264439706520919	0	0	0	0	0	0	0	0	0	0	0	0	0	0.1421419955472319	-0.07299675436844737	-0.04998882817461806	-0.2936144591237428	0.2904667373917287	-0.04345716368354084	-0.08775899999937833	50.65561599629577	3.556745555695989	6.394870669227663	0.6588746267839649	-594.8790985085627	-70.23067079107946	-39.0725724733643	-4.113318751124719	-2.102468904715223	-0.9961879071928885	11.17278144476007	-1.009679410033862	2.470597895154521	-5.486248977202197	7.172244211751879	7.172244211752373	0.04649911543562578	-0.003721071740115326	0.1492539312923499	-1.000487131454069	-1.771740287168488e-08	9.12832590918459e-08	3.812546634739076e-08	1.0660432769633e-09	5.408817947268966e-08	3.3342132895138e-08	-4.694316625847768e-09
0.01	-0.1603615645709142	0.05846901969408836	0.8979498613727473	0.3780372350931589	-0.2591899111299057	-0.2728045727362676	-0.01292555360672727	0.03258674192306731	0.03258674192316549	-0.1745324310632629	0.1744841616497432	-0.04230781363431956	-0.009314708608203912	-0.03961747018129309	-0.02064608208443055	-0.009704970179757702	0.1085203373781877	-0.01003329332741518	0.024429458097617	-0.05459935485059866	0.06982233176050465	0.06982233176051288	8.393564173850157e-05	-0.0003889828270610793	0.001214477895946446	-0.01000071638710449	0.1364402971481787	-0.08262191086351443	-0.04887223758578987	-0.28727865888348	0.280516865380537	-0.02984198370123145	-0.08304993174973045	47.97906620259627	-1.609470738699045	6.900720762986663	1.345070675342948	-595.791981026948	-80.16247396050487	-39.08256412478976	-3.853867089078796	-2.030114998686912	-0.9518715072119823	10.61349085137356	-0.9932359628147944	2.408611901257829	-5.390174288035777	6.845259193458126	6.84525919345957	-0.01120379377864964	-0.05066215646911133	0.1112530099441678	-0.9919228519041954	-3.034161668994446e-08	9.067553041027089e-08	5.916400622890771e-08	1.019237792661735e-08	-3.274855037781768e-08	3.611853991723096e-08	-9.2209525929329e-09
0.02	-0.1609504777989113	0.05816192228055778	0.8978052505250045	0.3796520118275306	-0.259339257962744	-0.2724415489430109	-0.01373510985451299	0.03362708218657721	0.03362708218659121	-0.1745312622123636	0.1744792976408522	-0.04228897844608331	-0.009463396465672139	-0.07795117786110203	-0.04066964970170837	-0.01917873771281873	0.21391391343747	-0.01978985340361989	0.04803860156293846	-0.106934531663599	0.1379659249313422	0.1379659249313614	0.0001460879906056798	-0.0005449763853384801	0.00257728743987476	-0.01968379115682722	0.1307385987491047	-0.09224706735860588	-0.04775564699663094	-0.2809428586432716	0.2705669933692912	-0.01622680371896369	-0.07834086350011597	45.364088714514	-6.785871997245776	7.40751634630743	1.965655984710761	-595.7344049563217	-90.01080878910113	-39.11215526748204	-3.856566250831897	-1.977966011280954	-0.9499473778535065	10.54742918097818	-0.9543327597920794	2.306534968695592	-5.033413369684685	6.836496493817805	6.836496493818862	0.04214245686057388	0.04287678201642935	0.1789202608929501	-0.9369588079770262	-4.296583050820405e-08	9.006780172869588e-08	8.020254611042466e-08	1.93187125762714e-08	-1.19585280228325e-07	3.88949469393239e-08	-1.374758856001803e-08
0.03	-0.1619168192128575	0.05765774007693214	0.8975668632016864	0.3823055630737352	-0.2595846693808869	-0.2718462940442277	-0.01505651521218922	0.03534024901060896	0.03534024901063556	-0.174529566689666	0.1744737155438402	-0.04225586594017781	-0.009707243177413987	-0.1151248444431458	-0.06005730341283935	-0.02847514825010564	0.3162788862943137	-0.02924146993295573	0.0709034206816688	-0.1569803615368994	0.2043522093450741	0.2043522093450535	0.0001757894929679921	-0.0005719708207340794	0.004057623754918453	-0.02903166300443092	0.1250184484545881	-0.08646911515429245	-0.04693493744982487	-0.2756651874200445	0.2658775955800173	-0.0187302529802261	-0.07362603304477422	43.79080386768521	-5.54320081961667	7.346522926560968	2.233625773378663	-595.7228536206682	-86.61106375998921	-39.16054400949184	-3.618933082649309	-1.902737999009447	-0.9159753542907469	10.00340623472133	-0.9329436278854427	2.26010086525119	-4.935241051890205	6.492412602199319	6.492412602193115	-0.01918037206625182	-0.0255765479295942	0.1344497056648446	-0.925641026825345	-5.702764617722172e-08	9.470508549128916e-08	1.022510730588572e-07	3.04392418696711e-08	-1.966789052424693e-07	4.069623640679873e-08	-1.808259099510023e-08
0.04	-0.1632491305366332	0.0569629667466103	0.897236214280473	0.3859672390279492	-0.2599230704699984	-0.2710256618579172	-0.01686739351972258	0.03770782231615972	0.03770782231617977	-0.1745280870258782	0.1744678457042504	-0.04220757819334564	-0.01004295653836677	-0.1511451598561324	-0.07878787504094828	-0.03763105729191391	0.4155388550185866	-0.03838778759755219	0.09311405907197419	-0.2048291216401935	0.2688472212407415	0.2688472212406759	0.000102916235715708	-0.0006025249206256075	0.005612335624197234	-0.0380571209989603	0.1192982981600336	-0.08069116294996964	-0.04611422790259872	-0.2703875161968738	0.2611881977907261	-0.02123370224148964	-0.06891120258949265	42.27400766337684	-4.30914286034714	7.285445222230333	2.435561923053807	-594.8357657124327	-83.13244539813363	-39.22676769517255	-3.625896017024254	-1.846549594673035	-0.92184707875771	9.926428354463264	-0.8932729868442416	2.175698823010644	-4.593999415685519	6.458241990204318	6.458241990204317	0.02162750493741716	0.04216484911716515	0.1937953717440273	-0.8724760373612381	-7.111910312151277e-08	9.945051384036012e-08	1.243204244828962e-07	4.160088857840576e-08	-2.73571641497101e-07	4.24774203576835e-08	-2.2413642223337e-08
0.05	-0.1649361034608248	0.05608400624032932	0.896814537679557	0.3906068352390491	-0.2603511514474534	-0.2699862648790854	-0.01914570753444169	0.04071141524250758	0.040711415242552	-0.1745273768742152	0.1744618604006008	-0.04214332960575651	-0.01046705659480561	-0.1860429307262572	-0.09690862815606165	-0.04669205883478709	0.5118822932229686	-0.04715826663474613	0.1146519885704233	-0.2504970640473843	0.331572917511098	0.3315729175110931	4.973832169416904e-05	-0.0005881296361206884	0.007242084750090671	-0.04669255573451287	0.1125976589971089	-0.07861920908515349	-0.04505270470448514	-0.2641553749642127	0.2539651529852224	-0.01919978958129627	-0.06357559627854932	40.11372119401962	-4.830699283458978	7.387417529157288	3.090310231925318	-594.0110202505764	-83.11925074900803	-39.30957155276916	-3.390748869846863	-1.780490041203465	-0.8964514190789411	9.413576646464261	-0.858425609529598	2.12581935491393	-4.502699070393575	6.134970984202495	6.134970984212058	-0.01717245833212087	-0.01797971023510403	0.148266265842588	-0.8485561037741401	-7.928287343567878e-08	1.086507489679187e-07	1.330517610175549e-07	4.938122773466515e-08	-3.228763904187613e-07	4.921582212346881e-08	-2.378005752240427e-08
